<mxfile host="app.diagrams.net" modified="2023-05-10T15:22:53.202Z" agent="Mozilla/5.0 (Macintosh; Intel Mac OS X 10_15_7) AppleWebKit/537.36 (KHTML, like Gecko) Chrome/103.0.0.0 Safari/537.36" version="21.2.9" etag="A__kjtdhzJZioZqfTwFS" type="github">
  <diagram name="Page-1" id="jaGzEchZg0SLj4QU8HpI">
    <mxGraphModel>
      <root>
        <mxCell id="0" />
        <mxCell id="1" parent="0" />
      </root>
    </mxGraphModel>
  </diagram>
</mxfile>
